PathFileType	4	(X/Y/Z)	/home/mitkof6/dev/sinergia_osimrl/data/02761/02761_PRE/experimental_data/static.trc
DataRate	CameraRate	NumFrames	NumMarkers	Units	OrigDataRate	OrigDataStartFrame	OrigNumFrames
100.000000	100.000000	4	45	mm	100.000000	141	189
Frame#	Time	C7			CLAV			LANK			LASI			LBHD			LELB			LFHD			LFIN			LHEE			LKNE			LKNI			LMED			LMET			LMIF			LPSI			LSHO			LTHI			LTIB			LTOE			LTTU			LWRA			LWRB			RANK			RASI			RBAK			RBHD			RELB			RFHD			RFIN			RHEE			RKNE			RKNI			RMED			RMET			RMIF			RPSI			RSHO			RTHI			RTIB			RTOE			RTTU			RWRA			RWRB			STRN			T10			
		X1	Y1	Z1	X2	Y2	Z2	X3	Y3	Z3	X4	Y4	Z4	X5	Y5	Z5	X6	Y6	Z6	X7	Y7	Z7	X8	Y8	Z8	X9	Y9	Z9	X10	Y10	Z10	X11	Y11	Z11	X12	Y12	Z12	X13	Y13	Z13	X14	Y14	Z14	X15	Y15	Z15	X16	Y16	Z16	X17	Y17	Z17	X18	Y18	Z18	X19	Y19	Z19	X20	Y20	Z20	X21	Y21	Z21	X22	Y22	Z22	X23	Y23	Z23	X24	Y24	Z24	X25	Y25	Z25	X26	Y26	Z26	X27	Y27	Z27	X28	Y28	Z28	X29	Y29	Z29	X30	Y30	Z30	X31	Y31	Z31	X32	Y32	Z32	X33	Y33	Z33	X34	Y34	Z34	X35	Y35	Z35	X36	Y36	Z36	X37	Y37	Z37	X38	Y38	Z38	X39	Y39	Z39	X40	Y40	Z40	X41	Y41	Z41	X42	Y42	Z42	X43	Y43	Z43	X44	Y44	Z44	X45	Y45	Z45	

142	1.41	264.9639892578125	1211.222045898438	-291.8110046386716	377.1929931640625	1142.3330078125	-283.9590148925779	249.5959930419922	59.64500045776377	-432.0130004882812	349.802001953125	818.6729736328126	-386.5559997558592	294.2959899902344	1338.425048828125	-359.1119995117185	311.6749877929688	937.2529907226564	-542.8629760742185	419.2940063476562	1350.046997070312	-334.9540100097653	426.2980041503906	702.4349975585939	-668.7559814453124	194.97900390625	34.80400085449228	-405.6510009765625	278.5369873046875	440.248992919922	-426.2539978027343	251.1100006103516	417.2760009765626	-307.0710144042968	245.3890075683594	65.34899902343759	-357.6860046386719	344.7749938964844	27.83399963378916	-432.1260070800781	303.7080078125	65.4980010986329	-384.2529907226562	229.2310028076172	877.5700073242189	-314.5939941406248	304.7380065917969	1161.505004882812	-419.3519897460935	268.6740112304688	580.2189941406251	-473.6239929199218	254.7469940185547	248.2599945068361	-488.0109863281249	361.7200012207031	41.9720001220704	-389.4030151367188	313.2380065917969	359.7449951171876	-366.0660095214843	423.4670104980469	742.6599731445314	-610.5189819335936	369.1740112304688	737.4310302734376	-648.9619750976561	249.2610015869141	54.58599853515627	-111.911003112793	369.43798828125	804.4979858398438	-186.3589935302733	242.7619934082031	1091.173950195312	-185.6739959716794	254.2920074462891	1320.863037109375	-258.2439880371091	296.5480041503906	963.2429809570312	-34.25199890136697	392.0830078125	1339.780029296875	-212.6049957275388	338.5849914550781	734.5	99.27300262451188	215.6920013427734	26.64699935913089	-161.2969970703125	270.6220092773438	434.9679870605469	-132.3999938964843	281.1730041503906	405.0539855957032	-250.7879943847655	287.385009765625	63.53300094604496	-176.9360046386719	336.2460021972656	29.13299942016603	-63.89799880981445	310.2369995117188	71.28800201416018	-128.5299987792968	236.9900054931641	875.1519775390625	-228.0520019531248	306.3710021972656	1200.654052734375	-156.2209930419919	292.0469970703125	572.2860107421875	-89.28299713134753	234.3350067138672	230.4750061035157	-72.27899932861322	366.6570129394531	43.36600112915041	-92.9199981689453	314.8840026855469	354.2019958496094	-168.3300018310546	313.9159851074219	767.0460205078125	54.59799957275408	369.9330139160156	776.406982421875	60.98099899292009	415.9849853515625	1010.184997558594	-273.4079895019529	253.9649963378906	959.0980224609376	-270.8869934082029	
143	1.42	264.8559875488281	1211.246948242188	-291.877014160156	377.1220092773438	1142.342041015625	-284.002990722656	249.5800018310547	59.62300109863291	-432.0010070800781	349.7009887695312	818.6890258789064	-386.5780029296873	294.22900390625	1338.43505859375	-359.158996582031	311.6929931640625	937.2529907226564	-542.8959960937498	419.2239990234375	1350.06298828125	-334.9800109863278	426.3720092773438	702.4190063476564	-668.7160034179686	194.9739990234375	34.78900146484384	-405.6579895019531	278.4630126953125	440.2500000000001	-426.2760009765624	251.0200042724609	417.2739868164063	-307.0939941406249	245.3800048828125	65.34999847412118	-357.6940002441406	344.77099609375	27.83499908447275	-432.1229858398438	303.6830139160156	65.48600006103524	-384.2380065917969	229.1380004882812	877.5709838867189	-314.6239929199217	304.7090148925781	1161.510986328125	-419.4049987792966	268.6069946289062	580.2210083007814	-473.6499938964843	254.6909942626953	248.2449951171876	-488.0339965820312	361.7229919433594	41.9819984436036	-389.3989868164062	313.1749877929688	359.7529907226563	-366.0780029296874	423.5050048828125	742.6420288085939	-610.4899902343749	369.239990234375	737.4199829101564	-648.9580078124999	249.2579956054688	54.59099960327151	-111.906997680664	369.3160095214844	804.5029907226562	-186.3800048828123	242.6139984130859	1091.2099609375	-185.7369995117185	254.218994140625	1320.859985351562	-258.2999877929685	296.3789978027344	963.2760009765625	-34.29299926757791	391.9920043945312	1339.7919921875	-212.638000488281	338.2950134277344	734.531982421875	99.25700378417984	215.6950073242188	26.6509990692139	-161.2960052490234	270.5440063476562	434.9639892578126	-132.4149932861327	281.0969848632812	405.0390014648438	-250.8040008544921	287.3829956054688	63.53699874877934	-176.9369964599609	336.25	29.14100074768068	-63.89799880981445	310.2340087890625	71.29000091552737	-128.531997680664	236.8309936523438	875.155029296875	-228.0899963378904	306.2890014648438	1200.683959960938	-156.2769927978513	291.9349975585938	572.302001953125	-89.31300354003893	234.2790069580078	230.4589996337891	-72.29299926757807	366.6489868164062	43.36100006103518	-92.91000366210936	314.8250122070312	354.2120056152344	-168.345001220703	313.6480102539062	767.0850219726562	54.55899810791033	369.6489868164062	776.4199829101562	60.97200012207048	415.8900146484375	1010.193969726563	-273.4330139160154	253.8580017089844	959.1049804687501	-270.9179992675779	
144	1.43	264.760009765625	1211.260986328125	-291.9410095214841	377.0390014648438	1142.347045898438	-284.0369873046873	249.5700073242188	59.61800003051768	-432	349.5840148925781	818.6950073242189	-386.5979919433592	294.1530151367188	1338.442016601562	-359.1969909667966	311.7040100097656	937.2540283203126	-542.9349975585935	419.1549987792969	1350.072998046875	-335.0069885253903	426.4570007324219	702.4089965820314	-668.6820068359374	194.9750061035156	34.77899932861337	-405.6650085449219	278.3900146484375	440.2470092773439	-426.2990112304686	250.9420013427734	417.2640075683594	-307.1170043945311	245.3710021972656	65.34200286865243	-357.7000122070312	344.7650146484375	27.82999992370615	-432.114990234375	303.6090087890625	65.40100097656259	-384.197998046875	229.0420074462891	877.5709838867189	-314.657989501953	304.6789855957031	1161.515991210938	-419.4559936523435	268.5230102539062	580.2160034179689	-473.6709899902343	254.6390075683594	248.2339935302736	-488.0559997558593	361.7200012207031	41.98300170898446	-389.3869934082031	313.1080017089844	359.7539978027344	-366.0880126953124	423.5480041503906	742.6309814453126	-610.4699707031249	369.3080139160156	737.4169921875001	-648.9589843749999	249.2590026855469	54.58900070190432	-111.9059982299805	369.1910095214844	804.5009765625	-186.397003173828	242.4799957275391	1091.239990234375	-185.7960052490232	254.1349945068359	1320.85595703125	-258.3599853515622	296.2139892578125	963.2969970703125	-34.33599853515604	391.9049987792969	1339.805053710938	-212.669006347656	338.0079956054688	734.5570068359375	99.23500061035172	215.697998046875	26.65399932861332	-161.302001953125	270.4710083007812	434.9519958496094	-132.4270019531249	281.0130004882812	405.0199890136719	-250.8200073242187	287.3800048828125	63.53200149536137	-176.9360046386719	336.2520141601562	29.14100074768068	-63.89500045776366	310.2250061035156	71.28399658203128	-128.5240020751953	236.6880035400391	875.1489868164062	-228.1329956054686	306.2009887695312	1200.708984375	-156.3229980468747	291.8370056152344	572.3060302734375	-89.34100341796862	234.2230072021484	230.4380035400391	-72.30500030517572	366.6329956054688	43.34899902343752	-92.89700317382811	314.7579956054688	354.2099914550782	-168.3529968261718	313.3519897460938	767.1430053710938	54.49700164794939	369.364013671875	776.426025390625	60.95999908447283	415.7940063476562	1010.200988769531	-273.450988769531	253.7539978027344	959.1049804687501	-270.9440002441404	
145	1.44	264.6820068359375	1211.265014648438	-292.002990722656	376.9509887695312	1142.348999023438	-284.0660095214841	249.5679931640625	59.63299942016612	-432.0130004882812	349.4540100097656	818.6950073242189	-386.6199951171873	294.0669860839844	1338.447021484375	-359.2229919433591	311.7109985351562	937.2600097656251	-542.9790039062498	419.0849914550781	1350.078979492188	-335.0350036621091	426.5469970703125	702.4060058593751	-668.6599731445311	194.97900390625	34.77299880981455	-405.6679992675781	278.3219909667969	440.2409973144532	-426.3219909667968	250.8739929199219	417.2500000000001	-307.1409912109374	245.3619995117188	65.33000183105477	-357.7049865722656	344.7569885253906	27.82099914550791	-432.1059875488281	303.5140075683594	65.27899932861337	-384.1499938964844	228.9360046386719	877.5720214843751	-314.6900024414061	304.6470031738281	1161.525024414062	-419.5060119628903	268.4240112304688	580.2069702148439	-473.6870117187499	254.5919952392578	248.2250061035157	-488.0750122070312	361.7099914550781	41.97700119018563	-389.3729858398438	313.0409851074219	359.7529907226563	-366.1010131835937	423.5989990234375	742.6300048828126	-610.4569702148436	369.3829956054688	737.4260253906251	-648.9669799804686	249.2619934082031	54.58300018310549	-111.9089965820312	369.0610046386719	804.4949951171875	-186.4140014648436	242.3719940185547	1091.262939453125	-185.8439941406247	254.0549926757812	1320.85205078125	-258.4110107421872	296.0480041503906	963.31298828125	-34.3839988708494	391.8200073242188	1339.81494140625	-212.6979980468747	337.7130126953125	734.5759887695312	99.20400238037125	215.7019958496094	26.65600013732914	-161.3119964599609	270.3989868164062	434.9370117187501	-132.4400024414062	280.9289855957031	404.9979858398438	-250.8329925537109	287.375	63.52399826049809	-176.9349975585938	336.25	29.13599967956544	-63.89099884033202	310.2120056152344	71.27400207519534	-128.5099945068359	236.572998046875	875.1389770507812	-228.1770019531248	306.1059875488281	1200.72802734375	-156.3630065917966	291.7479858398438	572.2999877929688	-89.36799621582018	234.1710052490234	230.4179992675782	-72.31900024414057	366.6119995117188	43.33399963378908	-92.88300323486327	314.6889953613281	354.2030029296876	-168.3580017089843	313.0390014648438	767.2080078125	54.42100143432634	369.0859985351562	776.4290161132812	60.94800186157244	415.7000122070312	1010.205993652344	-273.4660034179685	253.6569976806641	959.1040039062501	-270.971984863281	
